<svg viewBox="0 0 300 300" xmlns="http://www.w3.org/2000/svg"><circle cx="150" cy="150" fill="#ddf8e1" r="150" transform="matrix(.70710678 -.70710678 .70710678 .70710678 -62.130327 150.000121)"/><ellipse cx="147.45" cy="199.51" fill="#45e38d" rx="74.26" ry="51.13"/><path d="m115.84 153.24c-13.32 9.33-21.65 22.61-21.65 37.36 0 28.24 30.54 51.13 68.22 51.13 18.28 0 34.88-5.39 47.13-14.17-13.27 13.9-36.12 23.08-62.09 23.08-41 0-74.25-22.89-74.25-51.13 0-20.45 17.44-38.1 42.64-46.27z" fill="#00cc49"/><path d="m210.16 222.32 15.37-2a5.5 5.5 0 0 0 4.76-5l1.82-22.32a2.92 2.92 0 0 0 -2.91-3.16h-19zm-24.62-55.06c-4.37 0-10.14-4.62-10.19-9.44 0-11 4.38-19.1 10.91-23.57a5 5 0 0 1 7.85 4.15v23.35a5.5 5.5 0 0 1 -5.51 5.51z" fill="#45e38d"/><path d="m186.3 134.16c-3.43 4.58-5.52 10.79-5.52 18.42 0 4.82 5.82 9.44 10.19 9.44h3.03a5.25 5.25 0 0 1 -5.25 5.24h-3.32c-4.37 0-10.15-4.62-10.19-9.44.03-11.12 4.46-19.21 11.06-23.66z" fill="#00cc49"/><path d="m169 264.28h15a3.93 3.93 0 0 0 3.87-3.24l5.66-31.37h-28.53v30.68a3.93 3.93 0 0 0 4 3.93zm-50.15-19.12v14.84a4.29 4.29 0 0 1 -4.3 4.3h-14.23a4.31 4.31 0 0 1 -4.26-3.71l-3.71-26.84h15.07a11.43 11.43 0 0 1 11.43 11.41z" fill="#45e38d"/><path d="m81 197.24c-3.27 4.86-9.83 6.07-15.2 4.52a17 17 0 0 1 -11.65-12c-1.52-5.77.31-12.71 6.14-15.3 5.19-2.3 12 .77 12.27 6.8a7 7 0 0 1 -4.2 7 6.8 6.8 0 0 1 -7.81-1.9c-1.56-1.92 1.24-4.6 2.82-2.65a2.94 2.94 0 0 0 4.86-.19 4 4 0 0 0 -1.94-5.52c-5.49-2.55-9.14 4.09-8.76 8.66a13.14 13.14 0 0 0 7.66 10.78c3.92 1.73 9.86 1.73 12.51-2.21 1.39-2.06 4.71-.06 3.31 2z" fill="#00cc49"/><ellipse cx="200.45" cy="184.83" fill="#006d41" rx="3.26" ry="4.98"/><path d="m135 157.39a77.3 77.3 0 0 1 26.28 0 2.68 2.68 0 0 0 3.08-2 2.6 2.6 0 0 0 -2.21-3 82.44 82.44 0 0 0 -28 0 2.62 2.62 0 0 0 -2.21 3 2.69 2.69 0 0 0 3.06 2z" fill="#00cc49"/><ellipse cx="144.44" cy="101.37" fill="#e5a200" rx="19" ry="18.98"/><path d="m98.7 55.88c9.9-4.78 15.72-7.59 20.07-9.67-2.5.5-4.74 1-6 1.23a10.28 10.28 0 0 1 -10.21-4 2.33 2.33 0 0 1 1.44-3.75c21.8-3.8 22.25-3.88 33.75-5.77 3-.49 6.09-1 9-.09a12.49 12.49 0 0 1 4.32 2.44l-.33.39.3.13-6.72 15.38-.05 1.3c-4.72 0-9.31 2.14-13.24 4.84-3.23 2.21-11.4 12-14.07 15a12.14 12.14 0 0 1 -12.49 3.5 2.75 2.75 0 0 1 -1.29-4.52c4.89-5.28 8.47-9.12 11.27-12.15l-3.3 1.73a12.18 12.18 0 0 1 -12.91-1.29 2.76 2.76 0 0 1 .46-4.7z" fill="#846c6c"/><path d="m122.51 77.88-1.51 12.57 2.61-12.58a4.1 4.1 0 0 0 -1.1.01z" fill="#ffb288"/><path d="m189.34 5.22-1.62 3.78-5.72 13.24c-12.14 3.57-29.83 8.51-33.17 10.11-5.57 2.67-12.34 3.71-16.15 8.56a16.24 16.24 0 0 0 -2.63 5.36l-4.41 14a55.7 55.7 0 0 0 -2.21 10.1l-.95 7.55a5 5 0 0 1 .95 0c-.68 3.41-1.5 7.5-2.51 12.59a2.75 2.75 0 0 0 3.47 3.18 12.11 12.11 0 0 0 8.8-9.51c.72-3.93 2.54-16.57 4.13-20.14 2.18-4.9 5.44-9.61 10.29-11.89s11.47-1.35 14.37 3.16c2 3.15 1.87 7.26.86 10.87s-2.79 7-3.83 10.57a27.49 27.49 0 0 0 -1 9.46c.16 2.41.71 4.95 2.65 6.52a4.33 4.33 0 0 0 3.49.91c2-.39 2.58-2 3.14-3.48l7.5-20.17a9.83 9.83 0 0 1 2-3.69c1.35-1.34 3.32-1.78 5.13-2.36a29 29 0 0 0 16.6-14.6l16.4-26.74 3.66-6a149.53 149.53 0 0 0 -29.24-11.38z" fill="#9f7e7d"/><g fill="#45e38d"><ellipse cx="135.74" cy="278.43" rx="22.61" ry="4.23"/><ellipse cx="202.28" cy="274.96" rx="21.6" ry="4.04"/><path d="m245.74 262.74c-4.41-3-46.85-5.29-98.56-5.29-42.21 0-78.24 1.55-92.46 3.74-1.88-.26-3.93-.47-6.1-.64 3.54 3.24 7.24 6.33 11.08 9.23 4-.85 6.8-1.92 7.66-3.1 18 1.44 47.05 2.38 79.82 2.38 25.72 0 49.14-.58 66.73-1.52.85 2.13 10.84 3.86 23.74 4.19q5.81-4.19 11.18-8.89zm-168.89 12.83c0-1.91-6.21-3.54-15-4.23q5 3.66 10.36 6.92c2.9-.76 4.64-1.69 4.64-2.69z"/></g><path d="m82.09 241.1v-3.52c0-1.76-7.58-3.19-16.94-3.19a80.93 80.93 0 0 0 -8.37.42 12.36 12.36 0 0 0 -12.2-11.81h-4.82c-6.12.11-12 3.89-15.19 9.27a150.64 150.64 0 0 0 45.25 44.51c3-.65 4.81-1.49 4.92-2.42v-3.42a19.43 19.43 0 0 0 6.63-2.25 2 2 0 0 0 .59-.53 1.28 1.28 0 0 0 .36-.85 1.2 1.2 0 0 0 -.23-.67v-3.1a.8.8 0 0 0 -.15-.42.82.82 0 0 0 .15-.36v-4.28c0-.68-1.1-1.3-3-1.81v-2.67c1.81-.5 2.9-1.1 3-1.74v-3.83c1.31-.44 2.08-1 2.14-1.49v-4.29c0-.56-.78-1.09-2.14-1.55zm131.74 19.23s.01-.03 0 0zm-2.03-5.44s.01-.03 0 0zm2.03-5.07s.01-.03 0 0zm2.17-5.32s0-.03 0 0zm0-5.06s0-.03 0 0zm-2.29-5.12s.01-.03 0 0zm0-5.07s.01-.03 0 0zm45.61 10.53h-4.62a12.7 12.7 0 0 0 -4.85 1.13v-3.32c0-.58-.83-1.12-2.27-1.59v-3.52a.72.72 0 0 0 -.15-.42.79.79 0 0 0 .15-.36v-4.3c0-1.76-7.58-3.19-16.93-3.19s-16.94 1.43-16.93 3.22v4.21a.79.79 0 0 0 .15.37.82.82 0 0 0 -.16.45v4.21c.05.56.87 1.08 2.25 1.54v3.53a.81.81 0 0 0 .16.37.77.77 0 0 0 -.17.45v3.74c-1.36.47-2.15 1-2.14 1.58v3.53c-1.3.46-2 1-2 1.54v4.25c.05.52.78 1 2 1.45v3.99a.7.7 0 0 0 .15.36.75.75 0 0 0 -.16.45v1.63a91.22 91.22 0 0 0 -11.71-.7c-11.27 0-20.4 1.72-20.39 3.88v5.12c.2 2.09 9.24 3.78 20.39 3.78s20.16-1.68 20.4-3.77v-2.95a81.73 81.73 0 0 0 8.23.4 78.35 78.35 0 0 0 8.54-.44q4.32-3.19 8.39-6.71v-.37l.2.21a150.9 150.9 0 0 0 20.15-20.95 16.59 16.59 0 0 0 -8.68-2.8zm-142.32 34.04s0-.04 0 0zm38.21-4.11v-4.23a1.11 1.11 0 0 0 -.39-.76c1.64-.54 2.61-1.16 2.69-1.82v-5.17c0-2.12-9.14-3.84-20.41-3.84s-20.4 1.72-20.39 3.88v5.12a1.09 1.09 0 0 0 .4.68c-1.72.57-2.71 1.23-2.71 1.94v5.12c.07.66 1 1.27 2.57 1.81v4.3c.2 2.09 9.24 3.78 20.38 3.78s20.16-1.68 20.4-3.77v-5.16c.04-.68-.9-1.32-2.54-1.88zm-40.81-2s.01-.04 0 0zm2.3-7.71s.01-.07 0 0zm65.03 10.58s.01-.04 0 0z" fill="#e5a200"/><path d="m73.27 270.62.14-.07c.85-.42 1.33-.88 1.33-1.36 0-1-2-1.88-5.22-2.56a43.81 43.81 0 0 0 10.31-1.5 9.92 9.92 0 0 0 1-.4c.78-.37 1.22-.77 1.22-1.19a.8.8 0 0 0 -.15-.42c-.41.57-1.62 1.1-3.41 1.53-.68.17-1.46.32-2.3.46a56.29 56.29 0 0 1 -10.39.91l-1.09-.13c-2.65-.3-5.68-.49-8.93-.53h-.43c-.48-.07-.93-.16-1.34-.24l-.28-.05 1.4 1.16h.87a80.76 80.76 0 0 1 8.09.51c4.54.54 7.53 1.44 7.53 2.46 0 .64-1.14 1.22-3.08 1.71a42.59 42.59 0 0 1 -6 .92l1.11.8a57.39 57.39 0 0 0 5.73-.82 18.19 18.19 0 0 0 3.89-1.19zm5.84-13.95v.66a.88.88 0 0 1 -.23.45c.37.22.57.46.57.7 0 .92-3 1.73-7.31 2.16-2.07.2-4.45.31-7 .31s-4.91-.11-7-.31c-1.48-.15-2.81-.34-3.91-.56a43.2 43.2 0 0 1 -5-.76l-.1.19a19 19 0 0 0 5.74 1.5c1 .15 2.12.27 3.29.37 2.13.18 4.49.29 7 .29s4.85-.11 7-.29c1.19-.1 2.29-.22 3.31-.37a21 21 0 0 0 5.44-1.35c.78-.37 1.22-.77 1.22-1.18-.04-.68-1.13-1.3-3.02-1.81zm-19.5-.48h2.56c2 0 3.89-.07 5.66-.19s3.15-.26 4.51-.45a23.23 23.23 0 0 0 5.22-1.23 59.34 59.34 0 0 1 -9.48 1h-.92c-1.55.1-3.23.15-5 .15h-2.69a38.77 38.77 0 0 1 -10.2-1.36v1a45.71 45.71 0 0 0 5.7.83c1.46.11 3.03.21 4.64.25zm-6.06-5.9c1 .17 2.07.33 3.24.45a78.17 78.17 0 0 0 8.36.42c1.82 0 3.56-.06 5.2-.15 1.21-.08 2.36-.18 3.43-.3a24.92 24.92 0 0 0 7.09-1.56 3.25 3.25 0 0 0 1-.64 34 34 0 0 1 -6.2 1.14 43.08 43.08 0 0 1 -5.1.61c-1.66.12-3.48.19-5.39.19a69.56 69.56 0 0 1 -8.18-.45c-2.95-.36-5.09-.9-5.84-1.53-.34.33-.69.65-1.06.95a21 21 0 0 0 3.45.87zm28.54-9.19v.77a1.14 1.14 0 0 1 -.5.71v.07c0 1.11-4.21 2-10 2.37-1.36.07-2.8.11-4.29.11-2 0-3.92-.07-5.66-.2h-.9a60.73 60.73 0 0 1 -6.31-.62l-.24.4c.81.19 1.74.36 2.76.51 1.19.17 2.5.32 3.91.42 2 .16 4.16.24 6.44.24 1.44 0 2.83 0 4.16-.09s2.78-.18 4-.31a26.4 26.4 0 0 0 7.51-1.6c.78-.37 1.22-.77 1.22-1.19s-.74-1.13-2.1-1.59zm-16.94-.32a77.83 77.83 0 0 0 8-.39c1.17-.12 2.26-.26 3.25-.43a18.24 18.24 0 0 0 4.46-1.19c.78-.37 1.22-.77 1.22-1.19 0-1.76-7.58-3.19-16.94-3.19a80.93 80.93 0 0 0 -8.37.42v.76a69.8 69.8 0 0 1 8.34-.46c7.9 0 14.3 1.11 14.3 2.47 0 .87-2.55 1.63-6.41 2.07a70.58 70.58 0 0 1 -7.89.41c-2.09 0-4.08-.08-5.87-.22-1.05-.08-2-.18-2.94-.31-.06.25-.12.49-.19.72 1 .12 2.12.22 3.27.3 1.82.16 3.76.23 5.77.23zm182.43 23.14-.74.62a2.18 2.18 0 0 0 .74-.62zm.11-.48-.21-.23c-.65.75-2.7 1.42-5.64 1.9a57.35 57.35 0 0 1 -11.08.91 58.31 58.31 0 0 1 -11.1-.91c-3-.5-5.1-1.2-5.66-2a.75.75 0 0 0 -.16.45c.08 1.75 7.62 3.17 16.92 3.17 7.13 0 13.22-.84 15.72-2a3 3 0 0 0 .36-.19l.74-.62a.71.71 0 0 0 .12-.38s-.01-.07-.01-.1zm-33.86-3.11s.01-.03 0 0zm23.92.31c-2.07.2-4.45.31-7 .31s-4.91-.11-7-.31a32.28 32.28 0 0 1 -4.92-.79 27.35 27.35 0 0 1 -4.94-1.05c.48.9 2.95 1.69 6.56 2.21 1 .15 2.12.27 3.29.37 2.13.18 4.49.29 7 .29s4.85-.11 7-.29c1.18-.1 2.28-.22 3.3-.37a26.92 26.92 0 0 0 4.21-.89c-.21-.35-.4-.7-.58-1.07-.93.68-3.49 1.25-6.92 1.59zm-25.95-5.75s.01-.03 0 0zm9.2.98c1.42.14 3 .24 4.56.3 1 0 2.1.06 3.2.06 1.86 0 3.65-.06 5.32-.16s3.11-.25 4.46-.43a28.8 28.8 0 0 0 4.71-1 2.7 2.7 0 0 0 0-.28 57.35 57.35 0 0 1 -8.65.94h-.56c-1.62.11-3.39.17-5.23.17q-1.71 0-3.3-.06c-6.31-.26-11-1.24-11-2.41a1.16 1.16 0 0 1 -.59-.78v-.72c-1.3.46-2 1-2 1.54-.05 1.25 3.66 2.31 9.08 2.83zm-7.16-6.02s0-.06 0 0 0-.01 0 0zm2.16-2.92v-.47c-1.36.47-2.15 1-2.14 1.58 0 .94 2.24 1.78 5.71 2.36 1 .16 2.08.31 3.25.42 2.37.24 5.08.38 8 .38a81.478 81.478 0 0 0 9.19-.51c1.05-.12 2.22-.31 3.16-.5 0-.25.08-.5.13-.75-.63.09-1.3.18-2 .25a45.12 45.12 0 0 1 -4.54.57c-1.81.14-3.82.23-6 .23a70 70 0 0 1 -7.84-.41c-3.89-.44-6.46-1.21-6.46-2.07a.61.61 0 0 1 .09-.28 1.14 1.14 0 0 1 -.55-.8zm0-2.43s0-.03 0 0zm21.2.5c-1.36.07-2.8.11-4.29.11-2.27 0-4.41-.09-6.32-.25a39 39 0 0 1 -4.78-.67c-3-.49-5.11-1.19-5.66-2a.77.77 0 0 0 -.17.45c.05 1 2.62 1.92 6.58 2.5 1.19.17 2.5.32 3.92.42 2 .16 4.15.24 6.43.24 1.44 0 2.83 0 4.16-.09s2.78-.18 4-.31c1.49-.15 2.84-.35 4-.58a10.87 10.87 0 0 1 .78-1c-.59.14-1.23.26-1.91.37a47 47 0 0 1 -6.74.81zm-21.2-5.56s0-.03 0 0zm31.58-3.44v.77a1 1 0 0 1 -.41.64.58.58 0 0 1 0 .18c0 .93-3 1.74-7.32 2.17-2.06.2-4.44.31-7 .31s-4.68-.1-6.68-.29h-.39a47.42 47.42 0 0 1 -9.15-1.25 17.38 17.38 0 0 0 5.94 1.62c1 .15 2.12.27 3.3.37 2.13.18 4.49.29 7 .29s4.84-.11 7-.29c1.18-.1 2.29-.23 3.31-.37a21.14 21.14 0 0 0 5.44-1.35c.78-.37 1.22-.77 1.22-1.19.01-.61-.84-1.15-2.26-1.61zm-33.87-1.68s.01-.03 0 0zm11.52 1.17c1.7.11 3.52.17 5.42.17 2.82 0 5.47-.13 7.81-.36 1.21-.12 2.33-.26 3.34-.43a18.86 18.86 0 0 0 4.56-1.21c.78-.37 1.22-.77 1.22-1.19a.72.72 0 0 0 -.15-.42c-.56.79-2.66 1.49-5.71 2-1 .2-2.11.38-3.4.52a69.87 69.87 0 0 1 -7.67.39c-2 0-3.85-.07-5.56-.2a39.88 39.88 0 0 1 -5.55-.72c-3-.49-5.1-1.19-5.66-2a.82.82 0 0 0 -.16.45c.05 1.14 3.25 2.13 8 2.69 1.12.13 2.28.24 3.51.31zm-11.52-6.24s.01-.03 0 0zm6.66.69c1 .14 2.12.27 3.3.37 2.12.18 4.49.28 7 .28s4.84-.1 7-.28c1.18-.1 2.28-.23 3.3-.37a21.45 21.45 0 0 0 5.44-1.35c.78-.37 1.22-.77 1.22-1.19 0-1.76-7.58-3.19-16.93-3.19s-16.94 1.43-16.93 3.22c0 1.02 2.6 1.93 6.6 2.51zm10.28-5c7.89 0 14.3 1.1 14.3 2.47 0 .93-3 1.74-7.32 2.16-2.07.21-4.45.32-7 .32s-4.92-.11-7-.32c-4.37-.42-7.32-1.23-7.32-2.16.04-1.41 6.44-2.48 14.34-2.48zm-182.83 30.44a5.41 5.41 0 0 0 .77-.44 1.56 1.56 0 0 0 .68-.84.76.76 0 0 0 0-.15c0-.46-.43-.9-1.22-1.31a1.57 1.57 0 0 1 .23-.2.45.45 0 0 1 0-.19v-1.05a9.21 9.21 0 0 0 -1.94.71 18 18 0 0 1 -1.76.76 8.19 8.19 0 0 1 .76.33c.56.3.86.61.86.93v.09c-.05.29-.34.58-.85.85a10.08 10.08 0 0 1 -1.81.66l.9.91.92-.22a14.76 14.76 0 0 0 2.46-.84zm2.91-16.12c.06-.25.11-.5.16-.75l.09-.6c0-.25.06-.5.08-.75a12.25 12.25 0 0 0 0-1.35 11 11 0 0 0 -11.2-11.07 14 14 0 0 0 -2.74.25l10.93 20a17.24 17.24 0 0 0 1.31-1.99 15.44 15.44 0 0 0 1.37-3.74zm66.27 34.56s0-.04 0 0zm38.21-4.11v.94a1.34 1.34 0 0 1 -.6.84v.1c0 1.64-7.72 3-17.23 3-2.42 0-4.73-.09-6.82-.24a60.12 60.12 0 0 1 -12.69-1.62c2.55 1.57 10.31 2.72 19.51 2.72 8.59 0 15.93-1 18.94-2.42.93-.44 1.46-.92 1.46-1.42.01-.7-.93-1.34-2.57-1.9zm-40.81-2s.01-.04 0 0zm13.49 1.39c2.16.14 4.49.22 6.91.22 3.5 0 6.78-.17 9.65-.46 1.42-.14 2.73-.31 3.92-.51a22.87 22.87 0 0 0 5.37-1.44c.94-.45 1.47-.93 1.47-1.43a1.11 1.11 0 0 0 -.39-.76 25.36 25.36 0 0 1 -2.79.72c0 1-3.07 1.95-7.72 2.49a86 86 0 0 1 -9.51.49c-2.52 0-4.91-.09-7.07-.26-6-.47-10.15-1.51-10.15-2.72 0-.36.37-.71 1.06-1a4.82 4.82 0 0 1 -1.52-.88c-1.72.57-2.71 1.23-2.71 1.94.07 1.35 3.8 2.53 9.41 3.21 1.27.16 2.63.29 4.07.39zm-11.19-9.1s.01-.07 0 0zm20.4 1.58c8.59 0 15.93-1 18.94-2.42.94-.44 1.47-.92 1.47-1.43 0-2.12-9.14-3.84-20.41-3.84s-20.4 1.72-20.39 3.88 9.19 3.81 20.39 3.81zm0-6.83c9.52 0 17.23 1.33 17.23 3s-7.71 3-17.23 3-17.23-1.34-17.23-3 7.72-3 17.23-3zm44.63 15.83s.01-.04 0 0z" fill="#fddd7c"/><path d="m202.13 264.5c-11.27 0-20.4 1.72-20.39 3.88s9.19 3.81 20.39 3.81c7.66 0 14.32-.8 17.8-2a10.86 10.86 0 0 0 1.14-.45c.94-.44 1.47-.92 1.47-1.42 0-1.31-3.44-2.46-8.7-3.15a91.22 91.22 0 0 0 -11.71-.67zm17.23 3.85c0 .49-.7 1-2 1.38-2.87.95-8.63 1.6-15.28 1.6-9.51 0-17.23-1.34-17.23-3s7.72-3 17.23-3a76.42 76.42 0 0 1 11.71.8c3.44.57 5.57 1.35 5.57 2.22z" fill="#fddd7c"/></svg>