<svg viewBox="0 0 300 300" xmlns="http://www.w3.org/2000/svg"><circle cx="150" cy="150" fill="#e8e6f7" r="150"/><path d="m150 300a149.48 149.48 0 0 0 100.77-38.89 34.57 34.57 0 0 0 -9.53-10.11 34.67 34.67 0 0 0 -20.91-6.42 34.21 34.21 0 0 0 -4.93-11.11 35.6 35.6 0 0 0 -8.64-8.89 34.36 34.36 0 0 0 -45.67 5.05 34.92 34.92 0 0 0 -8.91 22.16 34.5 34.5 0 0 0 -28.18 15.78 32.86 32.86 0 0 0 -7.8-.25l-1 .06-1 .16-2.07.34c-.7.1-1.37.34-2.05.5s-1.36.33-2 .57a34.94 34.94 0 0 0 -14 8.88 36 36 0 0 0 -6.06 8.74 149.42 149.42 0 0 0 61.98 13.43zm40.8-265.44a19.06 19.06 0 0 1 -3.68.92 20.76 20.76 0 0 1 -3.08.24 20.12 20.12 0 0 1 -6.76-1.18c-2.79 7.3-5.35 15-5.35 17.22 0 4.92.28 10.87.72 16.91.66 9 1.65 18.23 2.5 24.5.43 2.73.77 4.92 1 6.25a10.1 10.1 0 0 0 .36 1.4h14.89a8.27 8.27 0 0 0 .37-1.43c.22-1.33.57-3.51 1-6.24.86-6.27 1.88-15.47 2.56-24.48.46-6 .77-12 .78-16.93-.01-2.14-2.55-9.87-5.31-17.18z" fill="#fff"/><path d="m175.15 93.17c-.85-6.27-1.84-15.48-2.5-24.5-9.81 8.09-14.65 30.33-11.51 40.27 2.41 7.65 10.68-1.86 15.35-8.12a10.1 10.1 0 0 1 -.36-1.4c-.21-1.33-.55-3.52-.98-6.25zm21.1-23.63c-.3-.29-.61-.56-.93-.82-.68 9-1.7 18.21-2.56 24.48-.44 2.73-.79 4.91-1 6.24a8.27 8.27 0 0 1 -.37 1.43 72.54 72.54 0 0 0 4.64 5.68c4.23 4.59 8.91 7.86 10.64 2.43 3.05-9.63-1.3-30.7-10.42-39.44zm-12.16-49.7c-.77 0-3.9 7.14-6.78 14.7a20.12 20.12 0 0 0 6.69 1.18 20.9 20.9 0 0 0 3.09-.24 19 19 0 0 0 3.67-.92c-2.76-7.47-5.85-14.51-6.67-14.72zm-1.64 73.59a62.79 62.79 0 0 0 .07 8.23l.71 9.51a.7.7 0 0 0 .69.65l.16-43.13h-.2zm1.64-24.74-.16 43.13a.7.7 0 0 0 .7-.65l.73-9.44a61.38 61.38 0 0 0 .1-8.25z" fill="#ce364f"/><path d="m49.36 261.23a150 150 0 0 0 42.92 27.25v-66a240.74 240.74 0 0 1 -42.92 38.75zm53.15 31.09a150.06 150.06 0 0 0 47.49 7.68v-165.93c-14.27 29.28-29.85 56.37-47.45 76.75z" fill="#ada2e2"/><path d="m150 300a149.36 149.36 0 0 0 92.48-31.9 25.4 25.4 0 0 0 -7.08-4.83 24.44 24.44 0 0 0 -8.55-2.16c-.74 0-1.48-.08-2.21-.07a10.12 10.12 0 0 1 -2.14-.08 8.13 8.13 0 0 1 -3.83-1.71 14.65 14.65 0 0 1 -1.52-1.53q-.77-.8-1.59-1.53a7.69 7.69 0 0 1 -2.29-3.53c-.38-1.34-.5-2.87-.93-4.26a26.87 26.87 0 0 0 -13.38-16.82 24.37 24.37 0 0 0 -17.35-1.93 25.65 25.65 0 0 0 -14.39 10.07 27.58 27.58 0 0 0 -3.89 8c-.23.71-.36 1.45-.55 2.17-.09.38-.16.71-.24 1a7.51 7.51 0 0 1 -.34.94 7.11 7.11 0 0 1 -2.48 3.05 7.35 7.35 0 0 1 -.85.51c-.14.08-.3.14-.45.21l-.51.23c-.69.29-1.36.64-2 1a26.78 26.78 0 0 0 -3.72 2.53 27.1 27.1 0 0 0 -5.89 6.74 27.88 27.88 0 0 0 -2 4 15.39 15.39 0 0 1 -.86 1.9 7.49 7.49 0 0 1 -1.22 1.58 7.35 7.35 0 0 1 -3.44 1.94 7.68 7.68 0 0 1 -2 .21h-2.22a40.73 40.73 0 0 0 -17.19 3.94 30.24 30.24 0 0 0 -13 11.69c-.24.42-.47.86-.69 1.3a150 150 0 0 0 46.32 7.34z" fill="#e9e6f7"/><path d="m153.21 94.07a75.55 75.55 0 0 1 -18.09 17.63l7 .08c-25.74 54.27-60.72 102.22-110.87 129.86a151 151 0 0 0 10.66 12.36c47.3-33.83 84.27-86 106.71-139.4l4.59 4.74a87.62 87.62 0 0 1 0-25.27z" fill="#203741"/><path d="m181.21 114.92c.42 76-.1 155.92-15.48 184.26a149.54 149.54 0 0 0 35.06-8c-14.12-33.27-13.28-105.7-13.28-176.26z" fill="#e8425a"/><path d="m172.51 298.3 1.76-.27 2.61-.45 1.47-.27c1.06-.2 2.11-.42 3.16-.65l.88-.18a148.88 148.88 0 0 0 15.53-4.3 148.81 148.81 0 0 0 28.29-12.94 15.1 15.1 0 0 0 -4.63-8.38 18.34 18.34 0 0 0 -10.82-4.69 18.55 18.55 0 0 0 -11.55 2.76 15.56 15.56 0 0 0 -6.82 9.22h-.07c-4.37-2.29-10.39-2.37-16 .27-7.83 3.68-12.11 11.36-10.28 17.84a17.83 17.83 0 0 0 -5.11 2.81c-.25.2-.48.41-.71.62 2.36-.16 4.71-.39 7-.66l1-.12 1.88-.24z" fill="#ada2e2"/></svg>